<svg id="Capa_1" enable-background="new 0 0 512 512" height="512" viewBox="0 0 512 512" width="512" xmlns="http://www.w3.org/2000/svg" xmlns:xlink="http://www.w3.org/1999/xlink"><linearGradient id="SVGID_1_" gradientUnits="userSpaceOnUse" x1="256" x2="256" y1="512" y2="0"><stop offset="0" stop-color="#ffc8d1"/><stop offset="1" stop-color="#fff6f7"/></linearGradient><linearGradient id="SVGID_2_" gradientUnits="userSpaceOnUse" x1="256" x2="256" y1="407" y2="105"><stop offset="0" stop-color="#ffa68d"/><stop offset="1" stop-color="#fd3a84"/></linearGradient><g><g><circle cx="256" cy="256" fill="url(#SVGID_1_)" r="256"/></g><g><g><g><g><g><path d="m229.4 407h53.2v-230.941h-53.2zm92.891-248.706c8.515-12.714 13.509-27.984 13.509-44.412 0-4.91-3.966-8.882-8.867-8.882-30.843 0-57.651 17.617-70.933 43.336-13.283-25.719-40.091-43.336-70.933-43.336-4.901 0-8.867 3.973-8.867 8.882 0 16.428 4.994 31.698 13.509 44.412zm-21.958 248.706h62.067c4.901 0 8.867-3.973 8.867-8.882v-115.471h-70.933v124.353zm-159.6-8.882c0 4.91 3.966 8.882 8.867 8.882h62.067v-124.353h-70.933v115.471zm-17.733-213.177v71.059c0 4.91 3.966 8.882 8.867 8.882h79.8v-88.823h-79.8c-4.901 0-8.867 3.972-8.867 8.882zm257.133-8.882h-79.8v88.823h79.8c4.901 0 8.867-3.973 8.867-8.882v-71.059c0-4.91-3.966-8.882-8.867-8.882z" fill="url(#SVGID_2_)"/></g></g></g></g></g></g></svg>